mastitorrents.com
 
http://mastitorrents.com/forums/index.php
 
http://thepiratebay.se/user/HDvideos/0/7

Zee Cine Awards Hindi 5th Feb 2012 720p x264 HD MTR@Mastitorrents

Name		                    : Zee.Cine.Awards.2012.5th.Feb.720p.x264.mp4
Format                           : MPEG-4
Codec ID                         : M4V 
File size                        : 2.15 GiB
Duration                         : 2h 46mn
Overall bit rate mode            : Variable
Overall bit rate                 : 1 853 Kbps

Video
ID                               : 1
Format                           : AVC
Format/Info                      : Advanced Video Codec
Format profile                   : High@L5.0
Format settings, CABAC           : Yes
Format settings, ReFrames        : 16 frames
Codec ID                         : avc1
Codec ID/Info                    : Advanced Video Coding
Duration                         : 2h 46mn
Bit rate                         : 1 800 Kbps
Maximum bit rate                 : 8 422 Kbps
Width                            : 1 280 pixels
Height                           : 720 pixels
Display aspect ratio             : 16:9
Frame rate mode                  : Constant
Frame rate                       : 50.000 fps
Color space                      : YUV
Chroma subsampling               : 4:2:0
Bit depth                        : 8 bits
Scan type                        : Progressive
Bits/(Pixel*Frame)               : 0.039
Stream size                      : 2.09 GiB (97%)

Audio
ID                               : 2
Format                           : AAC
Format/Info                      : Advanced Audio Codec
Format profile                   : HE-AAC / LC
Codec ID                         : 40
Duration                         : 2h 46mn
Bit rate mode                    : Variable
Bit rate                         : 48.0 Kbps
Maximum bit rate                 : 54.7 Kbps
Channel(s)                       : 2 channels
Channel positions                : Front: L R
Sampling rate                    : 48.0 KHz / 24.0 KHz
Compression mode                 : Lossy
Stream size                      : 57.1 MiB (3%)